<?xml version="1.0" encoding="UTF-8" standalone="no"?><svg xmlns="http://www.w3.org/2000/svg" xmlns:xlink="http://www.w3.org/1999/xlink" contentStyleType="text/css" height="300px" preserveAspectRatio="none" style="width:571px;height:300px;background:#FFFFFF;" version="1.1" viewBox="0 0 571 300" width="571px" zoomAndPan="magnify"><defs/><g><!--MD5=[eca71ce118dab17e2c498309d5e14a6d]
class Partido--><g id="elem_Partido"><rect codeLine="1" fill="#F1F1F1" height="129.4844" id="Partido" rx="2.5" ry="2.5" style="stroke:#181818;stroke-width:0.5;" width="146" x="7" y="23.5"/><ellipse cx="49.9" cy="39.5" fill="#ADD1B2" rx="11" ry="11" style="stroke:#181818;stroke-width:1.0;"/><path d="M52.2438,35.1719 C51.3063,34.7344 50.7125,34.5938 49.8375,34.5938 C47.2125,34.5938 45.2125,36.6719 45.2125,39.3906 L45.2125,40.5156 C45.2125,43.0938 47.3219,44.9844 50.2125,44.9844 C51.4313,44.9844 52.5875,44.6875 53.3375,44.1406 C53.9156,43.7344 54.2438,43.2813 54.2438,42.8906 C54.2438,42.4375 53.8531,42.0469 53.3844,42.0469 C53.1656,42.0469 52.9625,42.125 52.775,42.3125 C52.3219,42.7969 52.3219,42.7969 52.1344,42.8906 C51.7125,43.1563 51.025,43.2813 50.2594,43.2813 C48.2125,43.2813 46.9156,42.1875 46.9156,40.4844 L46.9156,39.3906 C46.9156,37.6094 48.1656,36.2969 49.9,36.2969 C50.4781,36.2969 51.0875,36.4531 51.5563,36.7031 C52.0406,36.9844 52.2125,37.2031 52.3063,37.6094 C52.3688,38.0156 52.4,38.1406 52.5406,38.2656 C52.6813,38.4063 52.9156,38.5156 53.1344,38.5156 C53.4,38.5156 53.6656,38.375 53.8375,38.1563 C53.9469,38 53.9781,37.8125 53.9781,37.3906 L53.9781,35.9688 C53.9781,35.5313 53.9625,35.4063 53.8688,35.25 C53.7125,34.9844 53.4313,34.8438 53.1344,34.8438 C52.8375,34.8438 52.6344,34.9375 52.4156,35.25 L52.2438,35.1719 Z " fill="#000000"/><text fill="#000000" font-family="sans-serif" font-size="14" lengthAdjust="spacing" textLength="52" x="70.1" y="44.3467">Partido</text><line style="stroke:#181818;stroke-width:0.5;" x1="8" x2="152" y1="55.5" y2="55.5"/><ellipse cx="18" cy="69.1484" fill="none" rx="3" ry="3" style="stroke:#038048;stroke-width:1.0;"/><text fill="#000000" font-family="sans-serif" font-size="14" lengthAdjust="spacing" textLength="78" x="27" y="72.4951">id: number</text><ellipse cx="18" cy="85.4453" fill="none" rx="3" ry="3" style="stroke:#038048;stroke-width:1.0;"/><text fill="#000000" font-family="sans-serif" font-size="14" lengthAdjust="spacing" textLength="92" x="27" y="88.792">nome: string</text><ellipse cx="18" cy="101.7422" fill="none" rx="3" ry="3" style="stroke:#038048;stroke-width:1.0;"/><text fill="#000000" font-family="sans-serif" font-size="14" lengthAdjust="spacing" textLength="83" x="27" y="105.0889">sigla: string</text><ellipse cx="18" cy="118.0391" fill="none" rx="3" ry="3" style="stroke:#038048;stroke-width:1.0;"/><text fill="#000000" font-family="sans-serif" font-size="14" lengthAdjust="spacing" textLength="120" x="27" y="121.3857">numero: number</text><ellipse cx="18" cy="134.3359" fill="none" rx="3" ry="3" style="stroke:#038048;stroke-width:1.0;"/><text fill="#000000" font-family="sans-serif" font-size="14" lengthAdjust="spacing" textLength="114" x="27" y="137.6826">bandeira: string</text><line style="stroke:#181818;stroke-width:0.5;" x1="8" x2="152" y1="144.9844" y2="144.9844"/></g><!--MD5=[35a64b983c79880384a2fd9b61f0c24b]
class Usuario--><g id="elem_Usuario"><rect codeLine="8" fill="#F1F1F1" height="162.0781" id="Usuario" rx="2.5" ry="2.5" style="stroke:#181818;stroke-width:0.5;" width="140" x="188" y="7"/><ellipse cx="228.65" cy="23" fill="#ADD1B2" rx="11" ry="11" style="stroke:#181818;stroke-width:1.0;"/><path d="M230.9938,18.6719 C230.0563,18.2344 229.4625,18.0938 228.5875,18.0938 C225.9625,18.0938 223.9625,20.1719 223.9625,22.8906 L223.9625,24.0156 C223.9625,26.5938 226.0719,28.4844 228.9625,28.4844 C230.1813,28.4844 231.3375,28.1875 232.0875,27.6406 C232.6656,27.2344 232.9938,26.7813 232.9938,26.3906 C232.9938,25.9375 232.6031,25.5469 232.1344,25.5469 C231.9156,25.5469 231.7125,25.625 231.525,25.8125 C231.0719,26.2969 231.0719,26.2969 230.8844,26.3906 C230.4625,26.6563 229.775,26.7813 229.0094,26.7813 C226.9625,26.7813 225.6656,25.6875 225.6656,23.9844 L225.6656,22.8906 C225.6656,21.1094 226.9156,19.7969 228.65,19.7969 C229.2281,19.7969 229.8375,19.9531 230.3063,20.2031 C230.7906,20.4844 230.9625,20.7031 231.0563,21.1094 C231.1188,21.5156 231.15,21.6406 231.2906,21.7656 C231.4313,21.9063 231.6656,22.0156 231.8844,22.0156 C232.15,22.0156 232.4156,21.875 232.5875,21.6563 C232.6969,21.5 232.7281,21.3125 232.7281,20.8906 L232.7281,19.4688 C232.7281,19.0313 232.7125,18.9063 232.6188,18.75 C232.4625,18.4844 232.1813,18.3438 231.8844,18.3438 C231.5875,18.3438 231.3844,18.4375 231.1656,18.75 L230.9938,18.6719 Z " fill="#000000"/><text fill="#000000" font-family="sans-serif" font-size="14" lengthAdjust="spacing" textLength="51" x="248.35" y="27.8467">Usuario</text><line style="stroke:#181818;stroke-width:0.5;" x1="189" x2="327" y1="39" y2="39"/><ellipse cx="199" cy="52.6484" fill="none" rx="3" ry="3" style="stroke:#038048;stroke-width:1.0;"/><text fill="#000000" font-family="sans-serif" font-size="14" lengthAdjust="spacing" textLength="78" x="208" y="55.9951">id: number</text><ellipse cx="199" cy="68.9453" fill="none" rx="3" ry="3" style="stroke:#038048;stroke-width:1.0;"/><text fill="#000000" font-family="sans-serif" font-size="14" lengthAdjust="spacing" textLength="86" x="208" y="72.292">login: string</text><ellipse cx="199" cy="85.2422" fill="none" rx="3" ry="3" style="stroke:#038048;stroke-width:1.0;"/><text fill="#000000" font-family="sans-serif" font-size="14" lengthAdjust="spacing" textLength="92" x="208" y="88.5889">nome: string</text><ellipse cx="199" cy="101.5391" fill="none" rx="3" ry="3" style="stroke:#038048;stroke-width:1.0;"/><text fill="#000000" font-family="sans-serif" font-size="14" lengthAdjust="spacing" textLength="104" x="208" y="104.8857">apelido: string</text><ellipse cx="199" cy="117.8359" fill="none" rx="3" ry="3" style="stroke:#038048;stroke-width:1.0;"/><text fill="#000000" font-family="sans-serif" font-size="14" lengthAdjust="spacing" textLength="93" x="208" y="121.1826">senha: string</text><ellipse cx="199" cy="134.1328" fill="none" rx="3" ry="3" style="stroke:#038048;stroke-width:1.0;"/><text fill="#000000" font-family="sans-serif" font-size="14" lengthAdjust="spacing" textLength="99" x="208" y="137.4795">profile: string</text><ellipse cx="199" cy="150.4297" fill="none" rx="3" ry="3" style="stroke:#038048;stroke-width:1.0;"/><text fill="#000000" font-family="sans-serif" font-size="14" lengthAdjust="spacing" textLength="114" x="208" y="153.7764">partido: Partido</text><line style="stroke:#181818;stroke-width:0.5;" x1="189" x2="327" y1="161.0781" y2="161.0781"/></g><!--MD5=[44a85d3d66ccd15ff4fa71a2c6c7e170]
class Feed--><g id="elem_Feed"><rect codeLine="17" fill="#F1F1F1" height="129.4844" id="Feed" rx="2.5" ry="2.5" style="stroke:#181818;stroke-width:0.5;" width="201" x="363.5" y="23.5"/><ellipse cx="442.25" cy="39.5" fill="#ADD1B2" rx="11" ry="11" style="stroke:#181818;stroke-width:1.0;"/><path d="M444.5938,35.1719 C443.6563,34.7344 443.0625,34.5938 442.1875,34.5938 C439.5625,34.5938 437.5625,36.6719 437.5625,39.3906 L437.5625,40.5156 C437.5625,43.0938 439.6719,44.9844 442.5625,44.9844 C443.7813,44.9844 444.9375,44.6875 445.6875,44.1406 C446.2656,43.7344 446.5938,43.2813 446.5938,42.8906 C446.5938,42.4375 446.2031,42.0469 445.7344,42.0469 C445.5156,42.0469 445.3125,42.125 445.125,42.3125 C444.6719,42.7969 444.6719,42.7969 444.4844,42.8906 C444.0625,43.1563 443.375,43.2813 442.6094,43.2813 C440.5625,43.2813 439.2656,42.1875 439.2656,40.4844 L439.2656,39.3906 C439.2656,37.6094 440.5156,36.2969 442.25,36.2969 C442.8281,36.2969 443.4375,36.4531 443.9063,36.7031 C444.3906,36.9844 444.5625,37.2031 444.6563,37.6094 C444.7188,38.0156 444.75,38.1406 444.8906,38.2656 C445.0313,38.4063 445.2656,38.5156 445.4844,38.5156 C445.75,38.5156 446.0156,38.375 446.1875,38.1563 C446.2969,38 446.3281,37.8125 446.3281,37.3906 L446.3281,35.9688 C446.3281,35.5313 446.3125,35.4063 446.2188,35.25 C446.0625,34.9844 445.7813,34.8438 445.4844,34.8438 C445.1875,34.8438 444.9844,34.9375 444.7656,35.25 L444.5938,35.1719 Z " fill="#000000"/><text fill="#000000" font-family="sans-serif" font-size="14" lengthAdjust="spacing" textLength="35" x="462.75" y="44.3467">Feed</text><line style="stroke:#181818;stroke-width:0.5;" x1="364.5" x2="563.5" y1="55.5" y2="55.5"/><ellipse cx="374.5" cy="69.1484" fill="none" rx="3" ry="3" style="stroke:#038048;stroke-width:1.0;"/><text fill="#000000" font-family="sans-serif" font-size="14" lengthAdjust="spacing" textLength="78" x="383.5" y="72.4951">id: number</text><ellipse cx="374.5" cy="85.4453" fill="none" rx="3" ry="3" style="stroke:#038048;stroke-width:1.0;"/><text fill="#000000" font-family="sans-serif" font-size="14" lengthAdjust="spacing" textLength="110" x="383.5" y="88.792">usuario: Usuario</text><ellipse cx="374.5" cy="101.7422" fill="none" rx="3" ry="3" style="stroke:#038048;stroke-width:1.0;"/><text fill="#000000" font-family="sans-serif" font-size="14" lengthAdjust="spacing" textLength="91" x="383.5" y="105.0889">texto: string</text><ellipse cx="374.5" cy="118.0391" fill="none" rx="3" ry="3" style="stroke:#038048;stroke-width:1.0;"/><text fill="#000000" font-family="sans-serif" font-size="14" lengthAdjust="spacing" textLength="113" x="383.5" y="121.3857">create_at: Date</text><ellipse cx="374.5" cy="134.3359" fill="none" rx="3" ry="3" style="stroke:#038048;stroke-width:1.0;"/><text fill="#000000" font-family="sans-serif" font-size="14" lengthAdjust="spacing" textLength="175" x="383.5" y="137.6826">comments: Comments[]</text><line style="stroke:#181818;stroke-width:0.5;" x1="364.5" x2="563.5" y1="144.9844" y2="144.9844"/></g><!--MD5=[742b1196bbba6f0e61b130a5588ff6eb]
class Comments--><g id="elem_Comments"><rect codeLine="24" fill="#F1F1F1" height="64.2969" id="Comments" rx="2.5" ry="2.5" style="stroke:#181818;stroke-width:0.5;" width="137" x="395.5" y="229"/><ellipse cx="422.2" cy="245" fill="#ADD1B2" rx="11" ry="11" style="stroke:#181818;stroke-width:1.0;"/><path d="M424.5438,240.6719 C423.6063,240.2344 423.0125,240.0938 422.1375,240.0938 C419.5125,240.0938 417.5125,242.1719 417.5125,244.8906 L417.5125,246.0156 C417.5125,248.5938 419.6219,250.4844 422.5125,250.4844 C423.7313,250.4844 424.8875,250.1875 425.6375,249.6406 C426.2156,249.2344 426.5438,248.7813 426.5438,248.3906 C426.5438,247.9375 426.1531,247.5469 425.6844,247.5469 C425.4656,247.5469 425.2625,247.625 425.075,247.8125 C424.6219,248.2969 424.6219,248.2969 424.4344,248.3906 C424.0125,248.6563 423.325,248.7813 422.5594,248.7813 C420.5125,248.7813 419.2156,247.6875 419.2156,245.9844 L419.2156,244.8906 C419.2156,243.1094 420.4656,241.7969 422.2,241.7969 C422.7781,241.7969 423.3875,241.9531 423.8563,242.2031 C424.3406,242.4844 424.5125,242.7031 424.6063,243.1094 C424.6688,243.5156 424.7,243.6406 424.8406,243.7656 C424.9813,243.9063 425.2156,244.0156 425.4344,244.0156 C425.7,244.0156 425.9656,243.875 426.1375,243.6563 C426.2469,243.5 426.2781,243.3125 426.2781,242.8906 L426.2781,241.4688 C426.2781,241.0313 426.2625,240.9063 426.1688,240.75 C426.0125,240.4844 425.7313,240.3438 425.4344,240.3438 C425.1375,240.3438 424.9344,240.4375 424.7156,240.75 L424.5438,240.6719 Z " fill="#000000"/><text fill="#000000" font-family="sans-serif" font-size="14" lengthAdjust="spacing" textLength="79" x="438.8" y="249.8467">Comments</text><line style="stroke:#181818;stroke-width:0.5;" x1="396.5" x2="531.5" y1="261" y2="261"/><ellipse cx="406.5" cy="274.6484" fill="none" rx="3" ry="3" style="stroke:#038048;stroke-width:1.0;"/><text fill="#000000" font-family="sans-serif" font-size="14" lengthAdjust="spacing" textLength="111" x="415.5" y="277.9951">feedId: number</text><line style="stroke:#181818;stroke-width:0.5;" x1="396.5" x2="531.5" y1="285.2969" y2="285.2969"/></g><!--MD5=[06266d57483441ba317674a22d4dabd9]
reverse link Feed to Comments--><g id="link_Feed_Comments"><path d="M464,172.879 C464,192.878 464,212.9964 464,228.8534 " fill="none" id="Feed-backto-Comments" style="stroke:#181818;stroke-width:1.0;"/><polygon fill="none" points="457,172.674,464,152.674,471,172.674,457,172.674" style="stroke:#181818;stroke-width:1.0;"/></g><!--MD5=[da96ca048f243c2bb949210d38702b79]
@startuml
class Partido {
    +id: number
    +nome: string
    +sigla: string
    +numero: number
    +bandeira: string
}
class Usuario {
    +id: number
    +login: string
    +nome: string
    +apelido: string
    +senha: string
    +profile: string
    +partido: Partido
}
class Feed {
    +id: number
    +usuario: Usuario
    +texto: string
    +create_at: Date
    +comments: Comments[]
}
class Comments extends Feed {
    +feedId: number
}
@enduml

PlantUML version 1.2022.8beta11(Unknown compile time)
(GPL source distribution)
Java Runtime: Java(TM) SE Runtime Environment
JVM: Java HotSpot(TM) 64-Bit Server VM
Default Encoding: UTF-8
Language: en
Country: US
--></g></svg>